<svg width="31" height="50" fill="none" xmlns="http://www.w3.org/2000/svg"><g clip-path="url(#clip0)" fill="#fff"><path d="M25.353 11.235H4.523a3.36 3.36 0 00-3.36 3.36v11.188a3.36 3.36 0 003.36 3.36h20.83a3.36 3.36 0 003.36-3.36V14.595a3.36 3.36 0 00-3.36-3.36zM3.77 31.521a1.666 1.666 0 00-1.875 1.458L0 48.112a1.68 1.68 0 001.458 1.875h.208a1.68 1.68 0 001.694-1.459l1.868-15.132a1.68 1.68 0 00-1.458-1.875zm18.109 2.822a1.679 1.679 0 00-2.379.068l-4.045 4.314-3.985-4.657a1.68 1.68 0 00-2.56 2.17l4.193 4.946-4.327 4.59a1.68 1.68 0 00.067 2.371 1.68 1.68 0 002.372-.067l4.079-4.314 3.95 4.657a1.683 1.683 0 102.567-2.177l-4.2-4.94 4.335-4.589a1.68 1.68 0 00-.067-2.372zm8.937 13.715l-2.063-14.917a1.695 1.695 0 00-3.36.457l2.09 14.924a1.687 1.687 0 001.666 1.444c.076.007.153.007.229 0a1.687 1.687 0 001.438-1.908zM3.084 7.304h24.01a1.68 1.68 0 00.523-3.272l-12-3.945a1.667 1.667 0 00-1.056 0l-12 3.945a1.68 1.68 0 00.523 3.272z"/></g><defs><clipPath id="clip0"><path fill="#fff" d="M0 0h30.829v50H0z"/></clipPath></defs></svg>