<svg width="20" height="62" fill="none" xmlns="http://www.w3.org/2000/svg"><g clip-path="url(#clip0)" fill="#fff"><path d="M20 33.5V17.169c0-2.796-5.005-9.904-8.158-9.904H8.158C5.005 7.264 0 14.372 0 17.168v16.405c0 .19.043.379.126.55l.81 2.745-.847 2.636a5.628 5.628 0 00-.089.99v14.377C0 57.943 2.41 62 5.379 62h9.242C17.59 62 20 57.943 20 54.871V40.495a3.53 3.53 0 00-.216-1.225l-.658-2.558.758-2.672c.075-.17.115-.353.116-.54zM8.163 4.15h3.242c.4.019.79-.12 1.085-.384a1.48 1.48 0 00.494-1.027V1.411A1.48 1.48 0 0012.49.384 1.524 1.524 0 0011.405 0H8.163a1.527 1.527 0 00-1.085.384 1.48 1.48 0 00-.494 1.027V2.74c.02.394.198.763.494 1.027.296.265.686.403 1.085.385z"/></g><defs><clipPath id="clip0"><path fill="#fff" d="M0 0h20v62H0z"/></clipPath></defs></svg>