<svg xmlns="http://www.w3.org/2000/svg" width="50" height="50"><path d="M40.958 25.33l-8.14-11.09a3.77 3.77 0 00-3.21-1.66l-1.39.03a6.743 6.743 0 10-6.77.06c-.14 0-.25-.01-.35-.01a3.767 3.767 0 00-3.89 1.53l-8.19 11.19a3.75 3.75 0 003.83 5.77 3.692 3.692 0 002.17-1.29l1.6-2.44v18.77a3.75 3.75 0 007.5 0v-9.42h1.63v9.42a3.75 3.75 0 107.5 0V29.07l.05-.05-.07-.11v-1.82l2 3.03a3.738 3.738 0 004.74.46 3.775 3.775 0 00.99-5.25zM20.538 6.81a4.25 4.25 0 114.25 4.25 4.253 4.253 0 01-4.25-4.25zm-1.28 8.82a1.251 1.251 0 011.35-.51.875.875 0 00.24.03c1.13.07 5.39.02 8.83-.07a1.27 1.27 0 011.1.59l3.31 4.54.052.071c-.7.57-1.074 1.506-2.286 1.506-1.736 0-1.736-1.938-3.472-1.938s-1.734 1.938-3.467 1.938-1.733-1.938-3.465-1.938-1.733 1.938-3.466 1.938c-1.153 0-1.544-.853-2.185-1.428l.059-.079z" fill="#fff"/></svg>