<svg width="17" height="54" fill="none" xmlns="http://www.w3.org/2000/svg"><g clip-path="url(#clip0)" fill="#fff"><path d="M17 18.696v-5.142c0-2.646-4.25-7.715-6.906-7.715H6.959c-2.656 0-6.906 5.07-6.906 7.715v5.21c.001.176.037.352.106.516l.638 1.131-.717 1.51c-.053.144-.08 1.767-.08 1.922l.892 1.447L0 26.73v1.07l.892 1.654L0 30.9v1.3l1.063 1.39L0 35.04l.207 2.444c.218 2.5.218 5.013 0 7.513L0 47.257c0 2.904 2.05 6.717 4.569 6.717h7.862c2.518 0 4.569-3.84 4.569-6.717a33.32 33.32 0 010-11.772v-.057l-1.063-1.68L17 32.458v-.972l-.892-1.55.892-1.979v-1.085l-.892-1.194.892-1.834c0-.717-.061-1.432-.18-2.14l-.564-1.436.643-1.034c.072-.17.106-.353.101-.537zM6.938 3.41h2.757c.335.018.663-.094.914-.311.25-.217.403-.52.425-.846V1.157a1.228 1.228 0 00-.425-.845A1.297 1.297 0 009.695 0H6.938a1.297 1.297 0 00-.913.312c-.251.216-.404.52-.426.845v1.096c.022.325.175.63.426.846.25.217.578.329.913.312z"/></g><defs><clipPath id="clip0"><path fill="#fff" d="M0 0h17v54H0z"/></clipPath></defs></svg>