<svg width="50" height="50" fill="none" xmlns="http://www.w3.org/2000/svg"><g clip-path="url(#clip0)" fill="#fff"><path d="M6.285 23.216c5.134-12.302 7.442-14.145 9.174-14.308 3.291-.297 4.367 4.57 5.518 9.732.232 1.047.517 2.326.79 3.297 1.117-2.04 2.634-4.454 5.082-4.215 2.325.226 5.395 2.593 10.302 18.163a27.904 27.904 0 013.239-1.977c3.593-1.803 6.395-1.326 8.174-.582a24.999 24.999 0 00-35.78-30.158A25 25 0 001.9 34.548c.878-2.402 2.53-6.879 4.384-11.332z"/><path d="M41.692 36.506a28.737 28.737 0 00-3.32 2.081c-2.599 1.79-5.413 3.727-9.558 3.727-2.605 0-5.733-.762-9.669-2.808-8.157-4.233-13.023-2.297-15.075-.89a25 25 0 0043.366-2.57c-1.163-.511-3.116-.854-5.744.46z"/><path d="M26.57 20.61c-.744-.08-1.971 2.192-2.553 3.28l-.296.529c-.785 1.436-1.715 1.633-2.36 1.54-1.785-.25-2.326-2.546-3.221-6.709-.495-2.18-1.495-6.692-2.442-7.407-2.064 1.163-6.977 12.337-10.85 23.099 3.257-1.268 8.413-1.744 15.605 1.982 7.192 3.727 10.814 2.698 14.175.64-4.913-15.866-7.576-16.907-8.058-16.954z"/></g><defs><clipPath id="clip0"><path fill="#fff" d="M0 0h50v50H0z"/></clipPath></defs></svg>