<svg version="1.1" id="Ebene_1" xmlns="http://www.w3.org/2000/svg" x="0" y="0" width="50" height="50" xml:space="preserve"><style>.st0{fill:#fff}</style><path class="st0" d="M19.069 39.392a1.78 1.78 0 01-.658.67c-.276.161-.59.246-.911.246h-.043a1.8 1.8 0 01-.922-.28 1.768 1.768 0 01-.64-.713l-4.221-8.656a1.746 1.746 0 01.277-1.94 1.805 1.805 0 012.521-.138c.174.154.316.34.418.55l2.752 5.634a141.655 141.655 0 0111.51-16.2 145.642 145.642 0 00-2.517-4.852C26.563 13.586 19.646.908 17.77.14a1.875 1.875 0 00-1.983.38 1.85 1.85 0 00-.37.536c-2.07 4.35-4.41 8.568-7.003 12.629C4.086 20.785 0 27.468 0 33.159c0 4.467 1.796 8.75 4.994 11.908A17.159 17.159 0 0017.05 50a17.16 17.16 0 0012.057-4.933 16.736 16.736 0 004.994-11.908c0-2.817-1.426-6.874-3.266-11.037a136.226 136.226 0 00-11.766 17.27z"/><path class="st0" d="M29.152 18.566a102.84 102.84 0 016.796-7.487c.698-.7 1.83-.71 2.539-.021a1.762 1.762 0 01.021 2.507c-2.396 2.374-5.284 5.635-7.68 8.614"/></svg>