<svg version="1.1" id="Ebene_1" xmlns="http://www.w3.org/2000/svg" x="0" y="0" width="50" height="50" xml:space="preserve"><style>.st0{fill:#fff}</style><g id="filtration"><g id="v1_1_"><path class="st0" d="M14.778 20.936c.038-.044.073-.09.111-.13.102-.088.215-.162.337-.222 1.85-1.387 3.638-2.102 5.175-1.605 2.063.677 4.87-.698 7.34-1.911 2.867-1.409 5.59-2.74 7.619-1.118 3.236 2.532 9.279 15.154 11.297 19.498 5.755-11.962.724-26.326-11.238-32.081S9.094 2.642 3.338 14.605a24.036 24.036 0 00.054 20.953c2.151-3.605 6.886-10.989 11.386-14.622z"/><path class="st0" d="M33.638 18.125c-.66-.514-2.879.56-4.667 1.453-2.952 1.448-6.295 3.086-9.442 2.058a1.953 1.953 0 00-1.442.29 9.316 9.316 0 007.944 1.677 156.61 156.61 0 013.353-.85c3.147-.783 4.992-1.246 6.22-2.235a11.559 11.559 0 00-1.966-2.393zm7.961 14.069c-.1-.051-6.927-3.62-12.25-.864-3.87 2.004-7.692 2.65-11.01 2.651-4.398 0-7.91-1.134-9.495-1.75a93.594 93.594 0 00-2.668 4.11c3.802 1.318 12.796 3.575 22.091-.337 5.976-2.514 12.517-.643 15.894.696a209.818 209.818 0 00-2.073-4.351 1.438 1.438 0 01-.49-.155zM29.358 45.039c-4.123 2.083-8.19 2.78-11.746 2.81 6.68 2.152 14.237 1.38 20.563-2.768.267-.176.512-.38.772-.565-2.716-.703-6.388-1.095-9.589.523z"/><path class="st0" d="M29.386 38.663c-4.332 1.822-8.56 2.445-12.317 2.445-4.872.001-8.946-1.047-11.436-1.888a23.931 23.931 0 004.66 4.774c3.817 1.018 10.785 1.997 17.765-1.53 4.905-2.48 10.408-1.264 13.57-.16a24.01 24.01 0 002.314-2.567c-2.567-1.114-9.026-3.402-14.556-1.074zm-1.363-9.895c4.324-2.238 9.14-1.293 12.11-.293a119.463 119.463 0 00-3.053-5.554c-1.675 1.218-3.867 1.766-7.036 2.555-.978.24-2.074.514-3.288.838a11.4 11.4 0 01-2.973.397 12.823 12.823 0 01-7.982-3.025c-1.567 1.476-3.382 3.623-5.214 6.097 2.952 1.002 10.184 2.741 17.436-1.015z"/><path fill="none" d="M15.699.076h18.602v49.847H15.699z"/></g></g></svg>