<svg width="18" height="49" fill="none" xmlns="http://www.w3.org/2000/svg"><g clip-path="url(#clip0)" fill="#fff"><path d="M11.767 7.063H6.238C3.657 7.063 0 13.768 0 16.33v25.444C0 44.33.57 49 3.153 49h11.7C17.424 49 18 44.34 18 41.773V16.33c0-2.562-3.657-9.267-6.233-9.267zM7.241 4.409h3.785c1.029 0 1.831-.67 1.831-1.499V1.498C12.857.67 12.034 0 11.027 0H7.24C6.212 0 5.41.67 5.41 1.498V2.91c0 .829.822 1.499 1.83 1.499z"/></g><defs><clipPath id="clip0"><path fill="#fff" d="M0 0h18v49H0z"/></clipPath></defs></svg>