<svg width="17" height="58" fill="none" xmlns="http://www.w3.org/2000/svg"><g clip-path="url(#clip0)" fill="#fff"><path d="M17 22.461V17.26c0-2.664-4.25-11.408-6.906-11.408H6.959C4.25 5.878 0 14.622 0 17.285v5.244c.001.178.037.355.106.52l.69 1.14-.716 1.518c-.053.146-.08 1.78-.08 1.935L.892 29.1 0 30.55v1.077l.892 1.665L0 34.748v1.306l1.063 1.399L0 38.915v12.297c0 2.923 2.05 6.762 4.569 6.762h7.862c2.518 0 4.569-3.865 4.569-6.762V39.305l-1.063-1.69L17 36.313v-.978l-.892-1.56.892-1.993V30.69l-.892-1.202.892-1.847c0-.721-.061-1.441-.18-2.153l-.564-1.446.643-1.04c.072-.172.106-.357.101-.542zM6.938 3.433h2.757c.335.017.663-.095.914-.313.25-.219.403-.524.425-.852V1.165a1.239 1.239 0 00-.425-.851A1.292 1.292 0 009.695 0H6.938a1.292 1.292 0 00-.913.314 1.238 1.238 0 00-.426.851v1.103c.022.328.175.633.426.852.25.218.578.33.913.313z"/></g><defs><clipPath id="clip0"><path fill="#fff" d="M0 0h17v58H0z"/></clipPath></defs></svg>