<svg xmlns="http://www.w3.org/2000/svg" width="50" height="50"><path d="M48.7 17.62a3.56 3.56 0 00-1.82-.76L33.9 15.04 28.094 3.58A3.577 3.577 0 0023.1 2.21a3.488 3.488 0 00-1.3 1.37l-5.81 11.53-12.976 1.82a3.476 3.476 0 00-1.76.78 3.4 3.4 0 00-1.08 1.56A3.344 3.344 0 00.1 21.15a3.374 3.374 0 00.95 1.64l9.37 8.86-2.206 12.58a3.292 3.292 0 00.21 1.86 3.386 3.386 0 001.19 1.48 3.569 3.569 0 002.08.66c.14 0 .28-.01.41-.02a3.926 3.926 0 00.82-.2 2 2 0 00.4-.17l11.61-5.93 11.62 5.94a3.754 3.754 0 001.67.45 3.612 3.612 0 002.7-1.23 3.327 3.327 0 00.77-2.79l-2.21-12.58 9.4-8.91a3.452 3.452 0 001.01-1.66 3.377 3.377 0 00-1.194-3.51zm-26.3.3a1.214 1.214 0 011.323-1.087h2.733a1.224 1.224 0 011.323 1.087v1.023a1.214 1.214 0 01-1.323 1.086H23.73a1.223 1.223 0 01-1.323-1.086zm3.667 21.76l-1.14-.58-1.14.58-5.287 2.707v-14.5c0-1.531 2.648-5.932 4.5-5.932h4c1.861 0 4.5 4.4 4.5 5.943v14.555z" fill="#fff"/></svg>