<svg width="46" height="50" fill="none" xmlns="http://www.w3.org/2000/svg"><path d="M44.796 7.563a1.647 1.647 0 00-1.772-1.397C28.53 7.431 24.203 1.041 24.038.784A1.64 1.64 0 0022.477 0a1.647 1.647 0 00-1.397.659c-.217.276-5.382 6.792-19.064 5.514a1.653 1.653 0 00-1.772 1.39c-.04.29-3.953 29.031 21.403 42.253.232.12.49.184.75.184a.906.906 0 00.133 0 .707.707 0 00.125 0c.266 0 .528-.062.764-.184C48.808 36.594 44.862 7.852 44.796 7.563zm-7.905 5.691c-9.375 9.4-16.002 21.509-16.068 21.66a1.66 1.66 0 01-1.449.857h-.04a1.64 1.64 0 01-1.442-.93l-3.498-7.245a1.647 1.647 0 112.97-1.423l2.142 4.453c2.55-4.276 7.984-12.622 15.04-19.697a1.651 1.651 0 112.345 2.325z" fill="#fff"/></svg>