<svg width="38" height="50" fill="none" xmlns="http://www.w3.org/2000/svg"><path d="M20.489 17.203L18.99 14l-1.498 3.203c-.108.233-.27.434-.469.586-.2.152-.431.25-.675.286L13 18.587l2.435 2.486c.174.183.303.407.377.654.075.246.091.507.05.762L15.288 26l2.996-1.66a1.474 1.474 0 011.418 0L22.7 26l-.573-3.51a1.696 1.696 0 01.054-.769 1.63 1.63 0 01.385-.654L25 18.58l-3.349-.513a1.477 1.477 0 01-.683-.28 1.58 1.58 0 01-.48-.585z" fill="#fff"/><path d="M18.5 2A18.868 18.868 0 008.222 5.034a18.116 18.116 0 00-6.814 8.078 17.548 17.548 0 00-1.053 10.4 17.855 17.855 0 005.064 9.216 18.664 18.664 0 009.472 4.926c3.589.695 7.308.338 10.689-1.024A18.4 18.4 0 0033.882 30 17.656 17.656 0 0037 20c-.005-4.772-1.956-9.348-5.424-12.723C28.108 3.903 23.405 2.005 18.5 2zm10.818 16.475l-4.183 3.966.984 5.595a1.486 1.486 0 01-.343 1.243 1.603 1.603 0 01-1.199.544 1.64 1.64 0 01-.746-.2l-5.168-2.643-5.167 2.642a1.605 1.605 0 01-1.65-.12 1.532 1.532 0 01-.528-.659 1.488 1.488 0 01-.093-.831l.985-5.596-4.17-3.941a1.522 1.522 0 01-.425-.729 1.492 1.492 0 01.033-.836c.09-.27.256-.511.48-.695a1.59 1.59 0 01.783-.346l5.776-.811 2.584-5.126c.13-.251.33-.462.578-.61a1.6 1.6 0 011.641 0c.247.148.447.359.578.61l2.583 5.095 5.776.812c.297.034.578.151.81.336a1.503 1.503 0 01.528 1.562 1.524 1.524 0 01-.447.738zm3.627 29.306l-3.061-7.188a.91.91 0 00-.23-.319.997.997 0 00-.352-.203 1.039 1.039 0 00-.781.043c-10.171 5.469-20.788.053-20.892 0a1.054 1.054 0 00-.846-.048.982.982 0 00-.355.24.891.891 0 00-.206.359l-2.183 7.188a.825.825 0 00-.01.464.87.87 0 00.242.405.99.99 0 00.42.239c.159.045.328.051.49.018L18.57 45.93l13.239 3.05c.077.008.155.008.233 0a1.03 1.03 0 00.442-.104.95.95 0 00.342-.28.838.838 0 00.12-.815z" fill="#fff"/></svg>