<svg xmlns="http://www.w3.org/2000/svg" xmlns:xlink="http://www.w3.org/1999/xlink" width="50" height="50" viewBox="0 0 46 46"><defs><path id="a" d="M0 0h46v46H0z"/></defs><clipPath id="b"><use xlink:href="#a" overflow="visible"/></clipPath><path d="M7.9 6.5c-.2-.1-.3-.2-.3-.4v-.8c0-.2.1-.4.3-.6.2-.1.5-.2.6-.2h2c.3 0 .5.1.6.2s.3.4.3.6V6c0 .2-.1.4-.3.6-.2.2-.5.2-.6.2h-2c-.1 0-.4-.1-.6-.3zm5.3 3.7c-.6-.7-1.5-1.2-2.3-1.4H8.6c-1.9 0-5 4.2-5 5.9v9.8c0 .1 0 .2.1.4l.5 1.7-.6 1.6c0 .2-.1.4-.1.6v8.6c0 1.8 1.5 4.2 3.3 4.2h5.7c-.1-.5-.1-.8-.1-1.3V29.8c0-.5 0-.8.1-1.3v-.3l.1-.2.4-1-.3-.8c-.2-.5-.3-.9-.3-1.5V13.1c.1-1 .4-2 .8-2.9zm29.4 14.3v-9.7c0-1.7-3-5.9-5-5.9h-2.3c-1 .2-1.8.7-2.5 1.5.4.8.6 1.7.6 2.7v11.8c0 .5-.1.9-.3 1.4l-.3.9.3.9c.2.6.3 1.2.3 1.8v10.3c0 .5 0 .8-.1 1.3h6c1.8 0 3.3-2.4 3.3-4.2v-8.6c0-.3 0-.5-.1-.7l-.4-1.5.5-1.6v-.4zM35.3 6.8h2c.3 0 .5-.1.6-.2.2-.1.3-.4.3-.6v-.7c0-.2-.1-.4-.3-.6-.2-.1-.5-.2-.6-.2h-2c-.3 0-.5.1-.6.2-.2.1-.3.4-.3.6V6c0 .2.1.4.3.6.2.1.4.2.6.2zm-4.9 3.7c-1.3-2.5-4-5.3-6-5.3h-2.8c-1.7 0-3.6 1.9-4.5 3.1-.5.6-.9 1.2-1.3 1.8-.5.7-.7 1.5-1 2.2-.1.3-.1.5-.1.7v11.8c0 .3.1.5.2.6l.6 1.7-.6 1.7v.1c-.1.3-.1.6-.1.8V40c0 .5.1.9.2 1.3.6 2.3 2.4 4.6 4.6 4.6h6.8c2.2 0 4-2.3 4.6-4.6.1-.5.2-.8.2-1.3V29.8c0-.4-.1-.7-.2-1.1l-.4-1.4-.1-.3.3-.9.2-.7c.1-.2.1-.5.1-.6V12.6c-.1-.7-.4-1.4-.7-2.1zM20.3 3.1c.4.3.8.4 1.3.4h2.5c.5 0 .9-.1 1.3-.4.4-.3.6-.6.6-1v-.7c0-.4-.3-.7-.6-1-.5-.3-.9-.4-1.4-.4h-2.5c-.5 0-.9.1-1.3.4s-.6.6-.6 1v.7c.1.4.3.8.7 1z" clip-path="url(#b)" fill="#fff"/><path clip-path="url(#b)" fill="none" d="M.3 23h45.4"/></svg>