<svg width="50" height="50" fill="none" xmlns="http://www.w3.org/2000/svg"><g clip-path="url(#clip0)" fill="#fff"><path d="M14.372 20.784c.04-.046.076-.093.116-.134.106-.092.223-.17.35-.232 1.924-1.442 3.784-2.186 5.383-1.669 2.145.704 5.064-.726 7.634-1.988 2.982-1.465 5.814-2.849 7.924-1.163 3.366 2.634 9.651 15.762 11.75 20.28a25 25 0 10-45 .115c2.238-3.75 7.163-11.43 11.843-15.209zm-3.325-10.238a1.453 1.453 0 011.656-1.244c.291.046 2.855.459 4.117 2.238h.046a5.233 5.233 0 015.744.343 1.455 1.455 0 01-1.616 2.419 2.575 2.575 0 00-3.796.761 1.466 1.466 0 01-1.21.634 1.448 1.448 0 01-1.424-1.744.865.865 0 00-.116-.727c-.419-.581-1.634-.96-2.157-1.04a1.454 1.454 0 01-1.245-1.64z"/><path d="M45.349 38.076c-2.471-5.407-5.395-11.192-7.78-15.227-1.743 1.267-4.023 1.837-7.319 2.657-1.017.25-2.157.535-3.419.872a11.871 11.871 0 01-3.093.413 13.337 13.337 0 01-8.302-3.146c-3.227 3.041-7.47 8.814-10.855 14.564-.12.201-.287.37-.488.489a25 25 0 0041.814 0 1.43 1.43 0 01-.558-.622z"/><path d="M33.988 17.86c-.686-.534-2.994.582-4.854 1.512-3.07 1.506-6.547 3.21-9.82 2.14a2.03 2.03 0 00-1.5.302 9.69 9.69 0 008.262 1.744c1.284-.343 2.441-.628 3.488-.884 3.273-.814 5.192-1.296 6.47-2.325a12.023 12.023 0 00-2.046-2.489z"/></g><defs><clipPath id="clip0"><path fill="#fff" d="M0 0h50v50H0z"/></clipPath></defs></svg>