<svg width="18" height="42" fill="none" xmlns="http://www.w3.org/2000/svg"><g clip-path="url(#clip0)" fill="#fff"><path d="M11.767 7.09H6.238C3.667 7.09 0 13.184 0 15.304v20.684C0 38.124.57 42 3.153 42h11.7C17.424 42 18 38.124 18 35.988V15.32c0-2.135-3.657-8.23-6.233-8.23zM7.241 4.425h3.785c1.029 0 1.831-.672 1.831-1.504V1.504c0-.831-.823-1.504-1.83-1.504H7.24C6.212 0 5.41.673 5.41 1.504v1.417c0 .832.822 1.504 1.83 1.504z"/></g><defs><clipPath id="clip0"><path fill="#fff" d="M0 0h18v42H0z"/></clipPath></defs></svg>